<?xml version="1.0" encoding="UTF-8" standalone="no"?>
<svg
   width="65mm"
   height="65mm"
   viewBox="0 -65 65 65"
   version="1.1"
   id="svg953"
   sodipodi:docname="top_laser_cut_plate.svg"
   inkscape:version="1.1.1 (3bf5ae0d25, 2021-09-20)"
   xmlns:inkscape="http://www.inkscape.org/namespaces/inkscape"
   xmlns:sodipodi="http://sodipodi.sourceforge.net/DTD/sodipodi-0.dtd"
   xmlns="http://www.w3.org/2000/svg"
   xmlns:svg="http://www.w3.org/2000/svg">
  <defs
     id="defs957" />
  <sodipodi:namedview
     id="namedview955"
     pagecolor="#ffffff"
     bordercolor="#666666"
     borderopacity="1.0"
     inkscape:pageshadow="2"
     inkscape:pageopacity="0.0"
     inkscape:pagecheckerboard="0"
     inkscape:document-units="mm"
     showgrid="false"
     inkscape:zoom="0.5"
     inkscape:cx="123"
     inkscape:cy="123"
     inkscape:window-width="1280"
     inkscape:window-height="651"
     inkscape:window-x="0"
     inkscape:window-y="0"
     inkscape:window-maximized="1"
     inkscape:current-layer="svg953" />
  <title
     id="title949">OpenSCAD Model</title>
  <path
     d="M 4.3972,-3.46407 3.97125,-3.70999 3.63672,-4.07053 3.42331,-4.51366 3.35001,-5 3.42331,-5.48636 3.63672,-5.92949 3.97125,-6.29002 4.3972,-6.53595 4.87671,-6.6454 l 0.49046,0.03676 0.45784,0.17968 0.38454,0.30666 0.27705,0.40639 0.14498,0.46998 v 0.49184 L 6.4866,-4.2841 6.20955,-3.87772 5.82501,-3.57106 5.36717,-3.39137 4.87671,-3.35461 Z"
     id="path1049"
     style="stroke:#ff0000;fill:none" />
  <path
     d="M 59.6328,-3.39137 59.175,-3.57106 58.7905,-3.87772 58.5134,-4.2841 58.3684,-4.75409 v -0.49184 l 0.145,-0.46998 0.2771,-0.40639 0.3845,-0.30666 0.4578,-0.17968 0.4905,-0.03676 0.4795,0.10945 0.4259,0.24593 0.3346,0.36053 0.2134,0.44313 L 61.65,-5 l -0.0733,0.48634 -0.2134,0.44313 -0.3346,0.36054 -0.4259,0.24592 -0.4795,0.10946 z"
     id="path1047"
     style="stroke:#ff0000;fill:none" />
  <path
     d="m 32.0019,-29.0356 -0.488,-0.1062 -0.4678,-0.1745 -0.4383,-0.2393 -0.3998,-0.2993 -0.3531,-0.3531 -0.2993,-0.3998 -0.2393,-0.4383 -0.1745,-0.4678 -0.1062,-0.488 L 29,-32.5 l 0.0356,-0.4981 0.1062,-0.488 0.1745,-0.4678 0.2393,-0.4383 0.2993,-0.3998 0.3531,-0.3531 0.3998,-0.2993 0.4383,-0.2393 0.4678,-0.1745 0.488,-0.1062 L 32.5,-36 l 0.4981,0.0356 0.488,0.1062 0.4678,0.1745 0.4383,0.2393 0.3998,0.2993 0.3531,0.3531 0.2993,0.3998 0.2393,0.4383 0.1745,0.4678 0.1062,0.488 L 36,-32.5 l -0.0356,0.4981 -0.1062,0.488 -0.1745,0.4678 -0.2393,0.4383 -0.2993,0.3998 -0.3531,0.3531 -0.3998,0.2993 -0.4383,0.2393 -0.4678,0.1745 -0.488,0.1062 L 32.5,-29 Z"
     id="path1045"
     style="stroke:#ff0000;fill:none" />
  <path
     d="M 4.3972,-58.4641 3.97125,-58.71 3.63672,-59.0705 3.42331,-59.5136 3.35001,-60 l 0.0733,-0.4863 0.21341,-0.4432 0.33453,-0.3605 0.42595,-0.2459 0.47951,-0.1095 0.49046,0.0368 0.45784,0.1797 0.38454,0.3066 0.27705,0.4064 0.14498,0.47 v 0.4918 l -0.14498,0.47 -0.27705,0.4064 -0.38454,0.3067 -0.45784,0.1796 -0.49046,0.0368 z"
     id="path1043"
     style="stroke:#ff0000;fill:none" />
  <path
     d="m 59.6328,-58.3914 -0.4578,-0.1796 -0.3845,-0.3067 -0.2771,-0.4064 -0.145,-0.47 v -0.4918 l 0.145,-0.47 0.2771,-0.4064 0.3845,-0.3066 0.4578,-0.1797 0.4905,-0.0368 0.4795,0.1095 0.4259,0.2459 0.3346,0.3605 0.2134,0.4432 0.0733,0.4863 -0.0733,0.4864 -0.2134,0.4431 -0.3346,0.3605 -0.4259,0.2459 -0.4795,0.1095 z"
     id="path1041"
     style="stroke:#ff0000;fill:none" />
  <path
     d="m 60.3736,-0.0139923 0.4946,-0.0619812 0.486,-0.1109165 0.4725,-0.158752 0.4544,-0.205002 0.4316,-0.249237 0.4047,-0.290969 0.3738,-0.32982 0.339,-0.3654 0.301,-0.39734 0.2599,-0.42532 0.2163,-0.4491 0.1705,-0.4684 0.1229,-0.48305 0.0743,-0.49289 L 65,-5 v -55 l -0.0249,-0.4978 -0.0743,-0.4929 -0.1229,-0.4831 -0.1705,-0.4684 -0.2163,-0.4491 -0.2599,-0.4253 -0.301,-0.3973 -0.339,-0.3654 -0.3738,-0.3298 -0.4047,-0.291 -0.4316,-0.2493 -0.4544,-0.205 -0.4725,-0.1587 -0.486,-0.1109 -0.4946,-0.062 -0.4982,-0.0124 H 4.87535 l -0.49705,0.0372 -0.49089,0.0866 -0.47983,0.135 -0.46401,0.1821 -0.44357,0.2274 -0.41872,0.2704 -0.38971,0.3108 -0.35682,0.348 -0.32041,0.3819 -0.280789,0.4118 -0.238388,0.4378 -0.193619,0.4593 -0.146927,0.4763 -0.0987698,0.4886 -0.04962161,0.496 v 55.49842 l 0.04962161,0.49599 0.0987698,0.48857 0.146927,0.47632 0.193619,0.45932 0.238388,0.43774 0.280789,0.41185 0.32041,0.38185 0.35682,0.34804 0.38971,0.310777 0.41872,0.270447 0.44357,0.227402 0.46401,0.182098 0.47983,0.13501 0.49089,0.0865476 0.49705,0.037262 H 59.8754 Z"
     id="path951"
     style="stroke:#800000;fill:none" />
</svg>
